<mxfile host="app.diagrams.net" agent="Mozilla/5.0 (Windows NT 10.0; Win64; x64; rv:143.0) Gecko/20100101 Firefox/143.0" version="28.2.5">
  <diagram name="Página-1" id="obVIaqs9R7aM378cHn1Q">
    <mxGraphModel dx="1601" dy="669" grid="1" gridSize="10" guides="1" tooltips="1" connect="1" arrows="1" fold="1" page="1" pageScale="1" pageWidth="827" pageHeight="1169" math="0" shadow="0">
      <root>
        <mxCell id="0" />
        <mxCell id="1" parent="0" />
        <mxCell id="zIM46qZPRsjTmHNu7E-v-105" style="edgeStyle=none;rounded=0;orthogonalLoop=1;jettySize=auto;html=1;exitX=0.5;exitY=1;exitDx=0;exitDy=0;entryX=0.5;entryY=0;entryDx=0;entryDy=0;endArrow=none;endFill=0;" parent="1" source="zIM46qZPRsjTmHNu7E-v-15" target="zIM46qZPRsjTmHNu7E-v-39" edge="1">
          <mxGeometry relative="1" as="geometry">
            <mxPoint x="1274.6446609406726" y="1840.857864376269" as="targetPoint" />
          </mxGeometry>
        </mxCell>
        <mxCell id="zIM46qZPRsjTmHNu7E-v-107" style="edgeStyle=none;rounded=0;orthogonalLoop=1;jettySize=auto;html=1;exitX=1;exitY=1;exitDx=0;exitDy=0;entryX=0;entryY=0.5;entryDx=0;entryDy=0;endArrow=none;endFill=0;" parent="1" source="zIM46qZPRsjTmHNu7E-v-15" target="zIM46qZPRsjTmHNu7E-v-38" edge="1">
          <mxGeometry relative="1" as="geometry">
            <mxPoint x="1280" y="1785" as="targetPoint" />
          </mxGeometry>
        </mxCell>
        <mxCell id="zIM46qZPRsjTmHNu7E-v-15" value="PAQUETE" style="shape=ext;margin=3;double=1;whiteSpace=wrap;html=1;align=center;labelBackgroundColor=none;" parent="1" vertex="1">
          <mxGeometry x="1004.5" y="1695" width="100" height="40" as="geometry" />
        </mxCell>
        <mxCell id="zIM46qZPRsjTmHNu7E-v-17" value="&lt;u&gt;ID_Envio&lt;/u&gt;" style="ellipse;whiteSpace=wrap;html=1;align=center;labelBackgroundColor=none;" parent="1" vertex="1">
          <mxGeometry x="902.5" y="1400" width="100" height="40" as="geometry" />
        </mxCell>
        <mxCell id="zIM46qZPRsjTmHNu7E-v-18" value="Fecha" style="ellipse;whiteSpace=wrap;html=1;align=center;labelBackgroundColor=none;" parent="1" vertex="1">
          <mxGeometry x="820" y="1350" width="100" height="40" as="geometry" />
        </mxCell>
        <mxCell id="zIM46qZPRsjTmHNu7E-v-19" value="Estado" style="ellipse;whiteSpace=wrap;html=1;align=center;labelBackgroundColor=none;" parent="1" vertex="1">
          <mxGeometry x="714.5" y="1370" width="100" height="40" as="geometry" />
        </mxCell>
        <mxCell id="zIM46qZPRsjTmHNu7E-v-22" value="Telefono" style="ellipse;whiteSpace=wrap;html=1;align=center;labelBackgroundColor=none;" parent="1" vertex="1">
          <mxGeometry x="400" y="1400" width="100" height="40" as="geometry" />
        </mxCell>
        <mxCell id="zIM46qZPRsjTmHNu7E-v-23" value="Nombre" style="ellipse;whiteSpace=wrap;html=1;align=center;labelBackgroundColor=none;" parent="1" vertex="1">
          <mxGeometry x="180" y="1400" width="100" height="40" as="geometry" />
        </mxCell>
        <mxCell id="zIM46qZPRsjTmHNu7E-v-24" value="&lt;u&gt;ID_Cliente&lt;/u&gt;" style="ellipse;whiteSpace=wrap;html=1;align=center;labelBackgroundColor=none;" parent="1" vertex="1">
          <mxGeometry x="280" y="1390" width="100" height="40" as="geometry" />
        </mxCell>
        <mxCell id="zIM46qZPRsjTmHNu7E-v-102" style="edgeStyle=none;rounded=0;orthogonalLoop=1;jettySize=auto;html=1;exitX=0;exitY=0;exitDx=0;exitDy=0;entryX=0.5;entryY=1;entryDx=0;entryDy=0;endArrow=none;endFill=0;" parent="1" source="zIM46qZPRsjTmHNu7E-v-25" target="zIM46qZPRsjTmHNu7E-v-23" edge="1">
          <mxGeometry relative="1" as="geometry" />
        </mxCell>
        <mxCell id="zIM46qZPRsjTmHNu7E-v-103" style="edgeStyle=none;rounded=0;orthogonalLoop=1;jettySize=auto;html=1;exitX=1;exitY=0;exitDx=0;exitDy=0;endArrow=none;endFill=0;entryX=0.5;entryY=1;entryDx=0;entryDy=0;" parent="1" source="zIM46qZPRsjTmHNu7E-v-25" target="zIM46qZPRsjTmHNu7E-v-22" edge="1">
          <mxGeometry relative="1" as="geometry">
            <mxPoint x="580" y="1440" as="targetPoint" />
          </mxGeometry>
        </mxCell>
        <mxCell id="zIM46qZPRsjTmHNu7E-v-154" style="edgeStyle=none;rounded=0;orthogonalLoop=1;jettySize=auto;html=1;exitX=0.5;exitY=1;exitDx=0;exitDy=0;entryX=0.5;entryY=0;entryDx=0;entryDy=0;" parent="1" source="zIM46qZPRsjTmHNu7E-v-25" target="zIM46qZPRsjTmHNu7E-v-152" edge="1">
          <mxGeometry relative="1" as="geometry" />
        </mxCell>
        <mxCell id="65QmvwVyFLrzTzqAWC3V-29" style="edgeStyle=none;rounded=0;orthogonalLoop=1;jettySize=auto;html=1;exitX=1;exitY=0.5;exitDx=0;exitDy=0;endArrow=none;endFill=0;" parent="1" source="zIM46qZPRsjTmHNu7E-v-25" target="65QmvwVyFLrzTzqAWC3V-28" edge="1">
          <mxGeometry relative="1" as="geometry" />
        </mxCell>
        <mxCell id="zIM46qZPRsjTmHNu7E-v-25" value="CLIENTE" style="whiteSpace=wrap;html=1;align=center;labelBackgroundColor=none;" parent="1" vertex="1">
          <mxGeometry x="300" y="1490" width="100" height="40" as="geometry" />
        </mxCell>
        <mxCell id="zIM46qZPRsjTmHNu7E-v-26" value="&lt;u&gt;Nº_Paquete&lt;/u&gt;" style="ellipse;whiteSpace=wrap;html=1;align=center;labelBackgroundColor=none;" parent="1" vertex="1">
          <mxGeometry x="890" y="1765" width="100" height="40" as="geometry" />
        </mxCell>
        <mxCell id="zIM46qZPRsjTmHNu7E-v-128" style="edgeStyle=none;rounded=0;orthogonalLoop=1;jettySize=auto;html=1;exitX=1;exitY=1;exitDx=0;exitDy=0;endArrow=none;endFill=0;entryX=0.5;entryY=0;entryDx=0;entryDy=0;" parent="1" source="zIM46qZPRsjTmHNu7E-v-27" target="zIM46qZPRsjTmHNu7E-v-33" edge="1">
          <mxGeometry relative="1" as="geometry" />
        </mxCell>
        <mxCell id="zIM46qZPRsjTmHNu7E-v-129" style="edgeStyle=none;rounded=0;orthogonalLoop=1;jettySize=auto;html=1;exitX=0;exitY=1;exitDx=0;exitDy=0;entryX=0.5;entryY=0;entryDx=0;entryDy=0;endArrow=none;endFill=0;" parent="1" source="zIM46qZPRsjTmHNu7E-v-27" target="zIM46qZPRsjTmHNu7E-v-34" edge="1">
          <mxGeometry relative="1" as="geometry" />
        </mxCell>
        <mxCell id="zIM46qZPRsjTmHNu7E-v-27" value="EMPRESA" style="whiteSpace=wrap;html=1;align=center;labelBackgroundColor=none;" parent="1" vertex="1">
          <mxGeometry x="130" y="1740" width="100" height="40" as="geometry" />
        </mxCell>
        <mxCell id="zIM46qZPRsjTmHNu7E-v-130" style="edgeStyle=none;rounded=0;orthogonalLoop=1;jettySize=auto;html=1;exitX=0;exitY=1;exitDx=0;exitDy=0;entryX=0.5;entryY=0;entryDx=0;entryDy=0;endArrow=none;endFill=0;" parent="1" source="zIM46qZPRsjTmHNu7E-v-28" target="zIM46qZPRsjTmHNu7E-v-36" edge="1">
          <mxGeometry relative="1" as="geometry" />
        </mxCell>
        <mxCell id="zIM46qZPRsjTmHNu7E-v-131" style="edgeStyle=none;rounded=0;orthogonalLoop=1;jettySize=auto;html=1;exitX=1;exitY=1;exitDx=0;exitDy=0;entryX=0.5;entryY=0;entryDx=0;entryDy=0;endArrow=none;endFill=0;" parent="1" source="zIM46qZPRsjTmHNu7E-v-28" target="zIM46qZPRsjTmHNu7E-v-35" edge="1">
          <mxGeometry relative="1" as="geometry" />
        </mxCell>
        <mxCell id="zIM46qZPRsjTmHNu7E-v-28" value="PERSONA" style="whiteSpace=wrap;html=1;align=center;labelBackgroundColor=none;" parent="1" vertex="1">
          <mxGeometry x="476" y="1720" width="100" height="40" as="geometry" />
        </mxCell>
        <mxCell id="zIM46qZPRsjTmHNu7E-v-33" value="&lt;u&gt;NIF&lt;/u&gt;" style="ellipse;whiteSpace=wrap;html=1;align=center;labelBackgroundColor=none;" parent="1" vertex="1">
          <mxGeometry x="200" y="1860" width="100" height="40" as="geometry" />
        </mxCell>
        <mxCell id="zIM46qZPRsjTmHNu7E-v-34" value="NombreEmpresa" style="ellipse;whiteSpace=wrap;html=1;align=center;labelBackgroundColor=none;" parent="1" vertex="1">
          <mxGeometry x="70" y="1860" width="100" height="40" as="geometry" />
        </mxCell>
        <mxCell id="zIM46qZPRsjTmHNu7E-v-35" value="NombreCompleto" style="ellipse;whiteSpace=wrap;html=1;align=center;labelBackgroundColor=none;" parent="1" vertex="1">
          <mxGeometry x="570" y="1860" width="100" height="40" as="geometry" />
        </mxCell>
        <mxCell id="zIM46qZPRsjTmHNu7E-v-36" value="&lt;u&gt;DNI&lt;/u&gt;" style="ellipse;whiteSpace=wrap;html=1;align=center;labelBackgroundColor=none;" parent="1" vertex="1">
          <mxGeometry x="410" y="1860" width="100" height="40" as="geometry" />
        </mxCell>
        <mxCell id="zIM46qZPRsjTmHNu7E-v-38" value="Peso" style="ellipse;whiteSpace=wrap;html=1;align=center;labelBackgroundColor=none;" parent="1" vertex="1">
          <mxGeometry x="1120" y="1765" width="100" height="40" as="geometry" />
        </mxCell>
        <mxCell id="zIM46qZPRsjTmHNu7E-v-39" value="Contenido" style="ellipse;whiteSpace=wrap;html=1;align=center;labelBackgroundColor=none;" parent="1" vertex="1">
          <mxGeometry x="1004.5" y="1765" width="100" height="40" as="geometry" />
        </mxCell>
        <mxCell id="zIM46qZPRsjTmHNu7E-v-125" style="edgeStyle=none;rounded=0;orthogonalLoop=1;jettySize=auto;html=1;exitX=0;exitY=1;exitDx=0;exitDy=0;entryX=0.5;entryY=0;entryDx=0;entryDy=0;endArrow=none;endFill=0;" parent="1" source="zIM46qZPRsjTmHNu7E-v-40" target="zIM46qZPRsjTmHNu7E-v-41" edge="1">
          <mxGeometry relative="1" as="geometry" />
        </mxCell>
        <mxCell id="zIM46qZPRsjTmHNu7E-v-126" style="edgeStyle=none;rounded=0;orthogonalLoop=1;jettySize=auto;html=1;exitX=0.75;exitY=1;exitDx=0;exitDy=0;entryX=0.5;entryY=0;entryDx=0;entryDy=0;endArrow=none;endFill=0;" parent="1" source="zIM46qZPRsjTmHNu7E-v-40" target="zIM46qZPRsjTmHNu7E-v-43" edge="1">
          <mxGeometry relative="1" as="geometry" />
        </mxCell>
        <mxCell id="zIM46qZPRsjTmHNu7E-v-127" style="edgeStyle=none;rounded=0;orthogonalLoop=1;jettySize=auto;html=1;exitX=1;exitY=1;exitDx=0;exitDy=0;entryX=0.5;entryY=0;entryDx=0;entryDy=0;endArrow=none;endFill=0;" parent="1" source="zIM46qZPRsjTmHNu7E-v-40" target="zIM46qZPRsjTmHNu7E-v-44" edge="1">
          <mxGeometry relative="1" as="geometry" />
        </mxCell>
        <mxCell id="zIM46qZPRsjTmHNu7E-v-40" value="RUTA" style="whiteSpace=wrap;html=1;align=center;labelBackgroundColor=none;" parent="1" vertex="1">
          <mxGeometry x="1322.5" y="1485" width="100" height="40" as="geometry" />
        </mxCell>
        <mxCell id="zIM46qZPRsjTmHNu7E-v-41" value="ID_Ruta" style="ellipse;whiteSpace=wrap;html=1;align=center;fontStyle=4;labelBackgroundColor=none;" parent="1" vertex="1">
          <mxGeometry x="1170" y="1542.5" width="100" height="40" as="geometry" />
        </mxCell>
        <mxCell id="zIM46qZPRsjTmHNu7E-v-43" value="Nombre" style="ellipse;whiteSpace=wrap;html=1;align=center;labelBackgroundColor=none;" parent="1" vertex="1">
          <mxGeometry x="1430" y="1582.5" width="100" height="40" as="geometry" />
        </mxCell>
        <mxCell id="zIM46qZPRsjTmHNu7E-v-44" value="Distancia_km" style="ellipse;whiteSpace=wrap;html=1;align=center;labelBackgroundColor=none;" parent="1" vertex="1">
          <mxGeometry x="1480" y="1542.5" width="100" height="40" as="geometry" />
        </mxCell>
        <mxCell id="zIM46qZPRsjTmHNu7E-v-122" style="edgeStyle=none;rounded=0;orthogonalLoop=1;jettySize=auto;html=1;exitX=0;exitY=1;exitDx=0;exitDy=0;entryX=0.5;entryY=0;entryDx=0;entryDy=0;endArrow=none;endFill=0;" parent="1" source="zIM46qZPRsjTmHNu7E-v-49" target="zIM46qZPRsjTmHNu7E-v-50" edge="1">
          <mxGeometry relative="1" as="geometry" />
        </mxCell>
        <mxCell id="zIM46qZPRsjTmHNu7E-v-123" style="edgeStyle=none;rounded=0;orthogonalLoop=1;jettySize=auto;html=1;endArrow=none;endFill=0;entryX=0.5;entryY=0;entryDx=0;entryDy=0;" parent="1" source="zIM46qZPRsjTmHNu7E-v-49" target="zIM46qZPRsjTmHNu7E-v-52" edge="1">
          <mxGeometry relative="1" as="geometry">
            <mxPoint x="1650" y="1622.5" as="targetPoint" />
          </mxGeometry>
        </mxCell>
        <mxCell id="zIM46qZPRsjTmHNu7E-v-124" style="edgeStyle=none;rounded=0;orthogonalLoop=1;jettySize=auto;html=1;exitX=1;exitY=1;exitDx=0;exitDy=0;entryX=0;entryY=0.5;entryDx=0;entryDy=0;endArrow=none;endFill=0;" parent="1" source="zIM46qZPRsjTmHNu7E-v-49" target="zIM46qZPRsjTmHNu7E-v-51" edge="1">
          <mxGeometry relative="1" as="geometry">
            <mxPoint x="2150" y="2272.5" as="targetPoint" />
          </mxGeometry>
        </mxCell>
        <mxCell id="zIM46qZPRsjTmHNu7E-v-49" value="PARADA" style="shape=ext;margin=3;double=1;whiteSpace=wrap;html=1;align=center;labelBackgroundColor=none;" parent="1" vertex="1">
          <mxGeometry x="1790" y="1485" width="100" height="40" as="geometry" />
        </mxCell>
        <mxCell id="zIM46qZPRsjTmHNu7E-v-50" value="Ciudad" style="ellipse;whiteSpace=wrap;html=1;align=center;labelBackgroundColor=none;" parent="1" vertex="1">
          <mxGeometry x="1654" y="1592.5" width="100" height="40" as="geometry" />
        </mxCell>
        <mxCell id="zIM46qZPRsjTmHNu7E-v-51" value="HoraPrevista" style="ellipse;whiteSpace=wrap;html=1;align=center;labelBackgroundColor=none;" parent="1" vertex="1">
          <mxGeometry x="1940" y="1592.5" width="100" height="40" as="geometry" />
        </mxCell>
        <mxCell id="zIM46qZPRsjTmHNu7E-v-52" value="&lt;u&gt;Nº_Parada&lt;/u&gt;" style="ellipse;whiteSpace=wrap;html=1;align=center;labelBackgroundColor=none;" parent="1" vertex="1">
          <mxGeometry x="1790" y="1592.5" width="100" height="40" as="geometry" />
        </mxCell>
        <mxCell id="zIM46qZPRsjTmHNu7E-v-88" style="edgeStyle=none;shape=wire;rounded=0;orthogonalLoop=1;jettySize=auto;html=1;exitX=0.25;exitY=0;exitDx=0;exitDy=0;dashed=1;endArrow=none;endFill=0;" parent="1" source="zIM46qZPRsjTmHNu7E-v-57" target="zIM46qZPRsjTmHNu7E-v-59" edge="1">
          <mxGeometry relative="1" as="geometry" />
        </mxCell>
        <mxCell id="zIM46qZPRsjTmHNu7E-v-89" style="edgeStyle=none;rounded=0;orthogonalLoop=1;jettySize=auto;html=1;endArrow=none;endFill=0;" parent="1" source="zIM46qZPRsjTmHNu7E-v-57" target="zIM46qZPRsjTmHNu7E-v-58" edge="1">
          <mxGeometry relative="1" as="geometry" />
        </mxCell>
        <mxCell id="zIM46qZPRsjTmHNu7E-v-90" style="edgeStyle=none;rounded=0;orthogonalLoop=1;jettySize=auto;html=1;exitX=0.75;exitY=0;exitDx=0;exitDy=0;entryX=0;entryY=0;entryDx=0;entryDy=0;endArrow=none;endFill=0;" parent="1" source="zIM46qZPRsjTmHNu7E-v-57" target="zIM46qZPRsjTmHNu7E-v-60" edge="1">
          <mxGeometry relative="1" as="geometry" />
        </mxCell>
        <mxCell id="zIM46qZPRsjTmHNu7E-v-142" style="edgeStyle=none;rounded=0;orthogonalLoop=1;jettySize=auto;html=1;exitX=0.5;exitY=1;exitDx=0;exitDy=0;entryX=0.5;entryY=0;entryDx=0;entryDy=0;endArrow=none;endFill=0;" parent="1" source="zIM46qZPRsjTmHNu7E-v-57" target="zIM46qZPRsjTmHNu7E-v-140" edge="1">
          <mxGeometry relative="1" as="geometry" />
        </mxCell>
        <mxCell id="65QmvwVyFLrzTzqAWC3V-20" style="edgeStyle=none;rounded=0;orthogonalLoop=1;jettySize=auto;html=1;exitX=1;exitY=0.5;exitDx=0;exitDy=0;endArrow=none;endFill=0;" parent="1" source="zIM46qZPRsjTmHNu7E-v-57" target="65QmvwVyFLrzTzqAWC3V-18" edge="1">
          <mxGeometry relative="1" as="geometry">
            <Array as="points">
              <mxPoint x="1373" y="961" />
            </Array>
          </mxGeometry>
        </mxCell>
        <mxCell id="65QmvwVyFLrzTzqAWC3V-40" value="(0,N)" style="edgeLabel;html=1;align=center;verticalAlign=middle;resizable=0;points=[];" parent="65QmvwVyFLrzTzqAWC3V-20" connectable="0" vertex="1">
          <mxGeometry x="-0.9206" y="-2" relative="1" as="geometry">
            <mxPoint x="-12" y="8" as="offset" />
          </mxGeometry>
        </mxCell>
        <mxCell id="zIM46qZPRsjTmHNu7E-v-187" style="edgeStyle=orthogonalEdgeStyle;rounded=0;orthogonalLoop=1;jettySize=auto;html=1;exitX=1;exitY=0;exitDx=0;exitDy=0;endArrow=none;endFill=0;entryX=0;entryY=0.5;entryDx=0;entryDy=0;" parent="1" source="zIM46qZPRsjTmHNu7E-v-57" target="zIM46qZPRsjTmHNu7E-v-185" edge="1">
          <mxGeometry relative="1" as="geometry">
            <Array as="points">
              <mxPoint x="1005" y="940" />
              <mxPoint x="2250" y="940" />
            </Array>
            <mxPoint x="2170" y="950" as="targetPoint" />
          </mxGeometry>
        </mxCell>
        <mxCell id="KEvyHmb3bW_60ThpbIGu-2" value="(0,1)" style="edgeLabel;html=1;align=center;verticalAlign=middle;resizable=0;points=[];" parent="zIM46qZPRsjTmHNu7E-v-187" vertex="1" connectable="0">
          <mxGeometry x="-0.9503" y="-1" relative="1" as="geometry">
            <mxPoint as="offset" />
          </mxGeometry>
        </mxCell>
        <mxCell id="zIM46qZPRsjTmHNu7E-v-57" value="VEHÍCULO" style="whiteSpace=wrap;html=1;align=center;labelBackgroundColor=none;" parent="1" vertex="1">
          <mxGeometry x="914.5" y="935.5" width="90" height="50" as="geometry" />
        </mxCell>
        <mxCell id="zIM46qZPRsjTmHNu7E-v-58" value="ID_Vehiculo" style="ellipse;whiteSpace=wrap;html=1;align=center;fontStyle=4;labelBackgroundColor=none;" parent="1" vertex="1">
          <mxGeometry x="929" y="835.5" width="100" height="40" as="geometry" />
        </mxCell>
        <mxCell id="zIM46qZPRsjTmHNu7E-v-59" value="Matrícula" style="ellipse;whiteSpace=wrap;html=1;align=center;labelBackgroundColor=none;" parent="1" vertex="1">
          <mxGeometry x="814.5" y="845.5" width="100" height="40" as="geometry" />
        </mxCell>
        <mxCell id="zIM46qZPRsjTmHNu7E-v-60" value="Capacidad Kg" style="ellipse;whiteSpace=wrap;html=1;align=center;labelBackgroundColor=none;" parent="1" vertex="1">
          <mxGeometry x="1045.5" y="855.5" width="100" height="40" as="geometry" />
        </mxCell>
        <mxCell id="zIM46qZPRsjTmHNu7E-v-92" style="edgeStyle=none;rounded=0;orthogonalLoop=1;jettySize=auto;html=1;exitX=0.75;exitY=1;exitDx=0;exitDy=0;entryX=0.5;entryY=0;entryDx=0;entryDy=0;endArrow=none;endFill=0;" parent="1" source="zIM46qZPRsjTmHNu7E-v-61" target="zIM46qZPRsjTmHNu7E-v-62" edge="1">
          <mxGeometry relative="1" as="geometry" />
        </mxCell>
        <mxCell id="zIM46qZPRsjTmHNu7E-v-61" value="VEHÍCULO_REFRIGERADO" style="whiteSpace=wrap;html=1;align=center;labelBackgroundColor=none;" parent="1" vertex="1">
          <mxGeometry x="1046.5" y="1155.5" width="170" height="40" as="geometry" />
        </mxCell>
        <mxCell id="zIM46qZPRsjTmHNu7E-v-62" value="TempMax" style="ellipse;whiteSpace=wrap;html=1;align=center;labelBackgroundColor=none;" parent="1" vertex="1">
          <mxGeometry x="1126" y="1225.5" width="100" height="40" as="geometry" />
        </mxCell>
        <mxCell id="zIM46qZPRsjTmHNu7E-v-63" value="TempMin" style="ellipse;whiteSpace=wrap;html=1;align=center;labelBackgroundColor=none;" parent="1" vertex="1">
          <mxGeometry x="1020" y="1225.5" width="100" height="40" as="geometry" />
        </mxCell>
        <mxCell id="zIM46qZPRsjTmHNu7E-v-93" style="edgeStyle=none;rounded=0;orthogonalLoop=1;jettySize=auto;html=1;exitX=0.5;exitY=1;exitDx=0;exitDy=0;entryX=0.5;entryY=0;entryDx=0;entryDy=0;endArrow=none;endFill=0;" parent="1" source="zIM46qZPRsjTmHNu7E-v-64" target="zIM46qZPRsjTmHNu7E-v-65" edge="1">
          <mxGeometry relative="1" as="geometry" />
        </mxCell>
        <mxCell id="zIM46qZPRsjTmHNu7E-v-64" value="&lt;div&gt;VEHÍCULO_ADR&lt;/div&gt;" style="whiteSpace=wrap;html=1;align=center;labelBackgroundColor=none;" parent="1" vertex="1">
          <mxGeometry x="740" y="1155.5" width="150" height="40" as="geometry" />
        </mxCell>
        <mxCell id="zIM46qZPRsjTmHNu7E-v-65" value="ClaseMercancía" style="ellipse;whiteSpace=wrap;html=1;align=center;labelBackgroundColor=none;" parent="1" vertex="1">
          <mxGeometry x="765" y="1245.5" width="100" height="40" as="geometry" />
        </mxCell>
        <mxCell id="zIM46qZPRsjTmHNu7E-v-111" style="edgeStyle=none;rounded=0;orthogonalLoop=1;jettySize=auto;html=1;exitX=0;exitY=0;exitDx=0;exitDy=0;endArrow=none;endFill=0;" parent="1" source="zIM46qZPRsjTmHNu7E-v-66" target="zIM46qZPRsjTmHNu7E-v-67" edge="1">
          <mxGeometry relative="1" as="geometry" />
        </mxCell>
        <mxCell id="zIM46qZPRsjTmHNu7E-v-115" style="edgeStyle=none;rounded=0;orthogonalLoop=1;jettySize=auto;html=1;exitX=1;exitY=0.25;exitDx=0;exitDy=0;entryX=0;entryY=0.5;entryDx=0;entryDy=0;endArrow=none;endFill=0;" parent="1" source="zIM46qZPRsjTmHNu7E-v-66" target="zIM46qZPRsjTmHNu7E-v-83" edge="1">
          <mxGeometry relative="1" as="geometry" />
        </mxCell>
        <mxCell id="65QmvwVyFLrzTzqAWC3V-9" value="" style="edgeStyle=orthogonalEdgeStyle;rounded=0;orthogonalLoop=1;jettySize=auto;html=1;exitX=0.429;exitY=1.028;exitDx=0;exitDy=0;exitPerimeter=0;" parent="1" source="zIM46qZPRsjTmHNu7E-v-66" target="65QmvwVyFLrzTzqAWC3V-7" edge="1">
          <mxGeometry relative="1" as="geometry" />
        </mxCell>
        <mxCell id="zIM46qZPRsjTmHNu7E-v-66" value="EMPLEADO" style="whiteSpace=wrap;html=1;align=center;labelBackgroundColor=none;" parent="1" vertex="1">
          <mxGeometry x="983.5" y="1961" width="100" height="49" as="geometry" />
        </mxCell>
        <mxCell id="zIM46qZPRsjTmHNu7E-v-67" value="&lt;u&gt;ID_Empleado&lt;/u&gt;" style="ellipse;whiteSpace=wrap;html=1;align=center;labelBackgroundColor=none;" parent="1" vertex="1">
          <mxGeometry x="876.5" y="1870" width="100" height="40" as="geometry" />
        </mxCell>
        <mxCell id="zIM46qZPRsjTmHNu7E-v-68" value="NombreCompleto" style="ellipse;whiteSpace=wrap;html=1;align=center;labelBackgroundColor=none;" parent="1" vertex="1">
          <mxGeometry x="820" y="1920" width="100" height="40" as="geometry" />
        </mxCell>
        <mxCell id="65QmvwVyFLrzTzqAWC3V-12" value="" style="edgeStyle=none;rounded=0;orthogonalLoop=1;jettySize=auto;html=1;endArrow=none;endFill=0;" parent="1" source="zIM46qZPRsjTmHNu7E-v-69" target="zIM46qZPRsjTmHNu7E-v-134" edge="1">
          <mxGeometry relative="1" as="geometry" />
        </mxCell>
        <mxCell id="zIM46qZPRsjTmHNu7E-v-69" value="CONDUCTOR" style="whiteSpace=wrap;html=1;align=center;labelBackgroundColor=none;" parent="1" vertex="1">
          <mxGeometry x="1162.5" y="2180" width="100" height="40" as="geometry" />
        </mxCell>
        <mxCell id="zIM46qZPRsjTmHNu7E-v-70" value="Licencia" style="ellipse;whiteSpace=wrap;html=1;align=center;labelBackgroundColor=none;" parent="1" vertex="1">
          <mxGeometry x="1122.5" y="2250" width="100" height="40" as="geometry" />
        </mxCell>
        <mxCell id="zIM46qZPRsjTmHNu7E-v-71" value="MECÁNICO" style="whiteSpace=wrap;html=1;align=center;labelBackgroundColor=none;" parent="1" vertex="1">
          <mxGeometry x="976.5" y="2180" width="100" height="40" as="geometry" />
        </mxCell>
        <mxCell id="zIM46qZPRsjTmHNu7E-v-72" value="Especialidad" style="ellipse;whiteSpace=wrap;html=1;align=center;labelBackgroundColor=none;" parent="1" vertex="1">
          <mxGeometry x="976.5" y="2260" width="100" height="40" as="geometry" />
        </mxCell>
        <mxCell id="zIM46qZPRsjTmHNu7E-v-110" style="edgeStyle=none;rounded=0;orthogonalLoop=1;jettySize=auto;html=1;exitX=0.5;exitY=1;exitDx=0;exitDy=0;entryX=0.5;entryY=0;entryDx=0;entryDy=0;endArrow=none;endFill=0;" parent="1" source="zIM46qZPRsjTmHNu7E-v-73" target="zIM46qZPRsjTmHNu7E-v-74" edge="1">
          <mxGeometry relative="1" as="geometry" />
        </mxCell>
        <mxCell id="zIM46qZPRsjTmHNu7E-v-73" value="ADMINISTRATIVO" style="whiteSpace=wrap;html=1;align=center;labelBackgroundColor=none;" parent="1" vertex="1">
          <mxGeometry x="749.5" y="2165" width="113" height="40" as="geometry" />
        </mxCell>
        <mxCell id="zIM46qZPRsjTmHNu7E-v-74" value="Departamento" style="ellipse;whiteSpace=wrap;html=1;align=center;labelBackgroundColor=none;" parent="1" vertex="1">
          <mxGeometry x="756" y="2240" width="100" height="40" as="geometry" />
        </mxCell>
        <mxCell id="zIM46qZPRsjTmHNu7E-v-80" value="DNI" style="ellipse;whiteSpace=wrap;html=1;align=center;labelBackgroundColor=none;" parent="1" vertex="1">
          <mxGeometry x="890" y="2030" width="100" height="40" as="geometry" />
        </mxCell>
        <mxCell id="zIM46qZPRsjTmHNu7E-v-81" value="Teléfono" style="ellipse;whiteSpace=wrap;html=1;align=center;labelBackgroundColor=none;" parent="1" vertex="1">
          <mxGeometry x="976.5" y="1840" width="100" height="40" as="geometry" />
        </mxCell>
        <mxCell id="zIM46qZPRsjTmHNu7E-v-83" value="NSS" style="ellipse;whiteSpace=wrap;html=1;align=center;labelBackgroundColor=none;" parent="1" vertex="1">
          <mxGeometry x="812.5" y="1980" width="100" height="40" as="geometry" />
        </mxCell>
        <mxCell id="zIM46qZPRsjTmHNu7E-v-91" style="edgeStyle=none;rounded=0;orthogonalLoop=1;jettySize=auto;html=1;exitX=0.25;exitY=1;exitDx=0;exitDy=0;entryX=0.639;entryY=-0.031;entryDx=0;entryDy=0;entryPerimeter=0;endArrow=none;endFill=0;" parent="1" source="zIM46qZPRsjTmHNu7E-v-61" target="zIM46qZPRsjTmHNu7E-v-63" edge="1">
          <mxGeometry relative="1" as="geometry" />
        </mxCell>
        <mxCell id="zIM46qZPRsjTmHNu7E-v-98" style="edgeStyle=none;rounded=0;orthogonalLoop=1;jettySize=auto;html=1;exitX=1;exitY=0;exitDx=0;exitDy=0;entryX=1;entryY=1;entryDx=0;entryDy=0;endArrow=none;endFill=0;" parent="1" source="zIM46qZPRsjTmHNu7E-v-96" target="zIM46qZPRsjTmHNu7E-v-17" edge="1">
          <mxGeometry relative="1" as="geometry" />
        </mxCell>
        <mxCell id="zIM46qZPRsjTmHNu7E-v-99" style="edgeStyle=none;rounded=0;orthogonalLoop=1;jettySize=auto;html=1;exitX=0.75;exitY=0;exitDx=0;exitDy=0;entryX=0.5;entryY=1;entryDx=0;entryDy=0;endArrow=none;endFill=0;" parent="1" source="zIM46qZPRsjTmHNu7E-v-96" target="zIM46qZPRsjTmHNu7E-v-18" edge="1">
          <mxGeometry relative="1" as="geometry">
            <mxPoint x="752.5" y="1522.5" as="targetPoint" />
          </mxGeometry>
        </mxCell>
        <mxCell id="g0_pJcZllksjb82MzW6W-2" style="rounded=0;orthogonalLoop=1;jettySize=auto;html=1;exitX=0.5;exitY=1;exitDx=0;exitDy=0;entryX=0.5;entryY=0;entryDx=0;entryDy=0;endArrow=none;endFill=0;" parent="1" source="zIM46qZPRsjTmHNu7E-v-96" edge="1">
          <mxGeometry relative="1" as="geometry">
            <Array as="points" />
            <mxPoint x="852.5" y="1685" as="targetPoint" />
          </mxGeometry>
        </mxCell>
        <mxCell id="g0_pJcZllksjb82MzW6W-7" value="(1,N)" style="edgeLabel;html=1;align=center;verticalAlign=middle;resizable=0;points=[];" parent="g0_pJcZllksjb82MzW6W-2" connectable="0" vertex="1">
          <mxGeometry x="-0.4224" relative="1" as="geometry">
            <mxPoint x="13" y="-36" as="offset" />
          </mxGeometry>
        </mxCell>
        <mxCell id="g0_pJcZllksjb82MzW6W-4" style="edgeStyle=orthogonalEdgeStyle;rounded=0;orthogonalLoop=1;jettySize=auto;html=1;entryX=0;entryY=0.5;entryDx=0;entryDy=0;endArrow=none;endFill=0;" parent="1" source="zIM46qZPRsjTmHNu7E-v-96" target="g0_pJcZllksjb82MzW6W-1" edge="1">
          <mxGeometry relative="1" as="geometry" />
        </mxCell>
        <mxCell id="g0_pJcZllksjb82MzW6W-11" value="(1,1)" style="edgeLabel;html=1;align=center;verticalAlign=middle;resizable=0;points=[];" parent="g0_pJcZllksjb82MzW6W-4" connectable="0" vertex="1">
          <mxGeometry x="-0.36" y="2" relative="1" as="geometry">
            <mxPoint x="-17" y="-8" as="offset" />
          </mxGeometry>
        </mxCell>
        <mxCell id="zIM46qZPRsjTmHNu7E-v-96" value="ENVÍO" style="whiteSpace=wrap;html=1;align=center;" parent="1" vertex="1">
          <mxGeometry x="802.5" y="1485" width="100" height="40" as="geometry" />
        </mxCell>
        <mxCell id="zIM46qZPRsjTmHNu7E-v-100" style="edgeStyle=none;rounded=0;orthogonalLoop=1;jettySize=auto;html=1;exitX=0.5;exitY=0;exitDx=0;exitDy=0;entryX=1;entryY=0.5;entryDx=0;entryDy=0;endArrow=none;endFill=0;" parent="1" source="zIM46qZPRsjTmHNu7E-v-96" target="zIM46qZPRsjTmHNu7E-v-19" edge="1">
          <mxGeometry relative="1" as="geometry" />
        </mxCell>
        <mxCell id="zIM46qZPRsjTmHNu7E-v-101" style="edgeStyle=none;rounded=0;orthogonalLoop=1;jettySize=auto;html=1;exitX=0.5;exitY=0;exitDx=0;exitDy=0;entryX=0.614;entryY=1.012;entryDx=0;entryDy=0;entryPerimeter=0;endArrow=none;endFill=0;" parent="1" source="zIM46qZPRsjTmHNu7E-v-25" target="zIM46qZPRsjTmHNu7E-v-24" edge="1">
          <mxGeometry relative="1" as="geometry" />
        </mxCell>
        <mxCell id="zIM46qZPRsjTmHNu7E-v-104" style="edgeStyle=none;rounded=0;orthogonalLoop=1;jettySize=auto;html=1;exitX=0;exitY=1;exitDx=0;exitDy=0;entryX=0.681;entryY=-0.067;entryDx=0;entryDy=0;entryPerimeter=0;endArrow=none;endFill=0;" parent="1" source="zIM46qZPRsjTmHNu7E-v-15" target="zIM46qZPRsjTmHNu7E-v-26" edge="1">
          <mxGeometry relative="1" as="geometry" />
        </mxCell>
        <mxCell id="zIM46qZPRsjTmHNu7E-v-108" style="edgeStyle=none;rounded=0;orthogonalLoop=1;jettySize=auto;html=1;exitX=0.25;exitY=1;exitDx=0;exitDy=0;entryX=0.619;entryY=0.008;entryDx=0;entryDy=0;entryPerimeter=0;endArrow=none;endFill=0;" parent="1" source="zIM46qZPRsjTmHNu7E-v-69" target="zIM46qZPRsjTmHNu7E-v-70" edge="1">
          <mxGeometry relative="1" as="geometry" />
        </mxCell>
        <mxCell id="zIM46qZPRsjTmHNu7E-v-109" style="edgeStyle=none;rounded=0;orthogonalLoop=1;jettySize=auto;html=1;exitX=0.5;exitY=1;exitDx=0;exitDy=0;entryX=0.5;entryY=0;entryDx=0;entryDy=0;endArrow=none;endFill=0;" parent="1" source="zIM46qZPRsjTmHNu7E-v-71" target="zIM46qZPRsjTmHNu7E-v-72" edge="1">
          <mxGeometry relative="1" as="geometry" />
        </mxCell>
        <mxCell id="zIM46qZPRsjTmHNu7E-v-112" style="edgeStyle=none;rounded=0;orthogonalLoop=1;jettySize=auto;html=1;exitX=0;exitY=0.5;exitDx=0;exitDy=0;entryX=1.003;entryY=0.709;entryDx=0;entryDy=0;entryPerimeter=0;endArrow=none;endFill=0;" parent="1" source="zIM46qZPRsjTmHNu7E-v-66" target="zIM46qZPRsjTmHNu7E-v-68" edge="1">
          <mxGeometry relative="1" as="geometry" />
        </mxCell>
        <mxCell id="zIM46qZPRsjTmHNu7E-v-113" style="edgeStyle=none;rounded=0;orthogonalLoop=1;jettySize=auto;html=1;exitX=0.5;exitY=0;exitDx=0;exitDy=0;endArrow=none;endFill=0;entryX=0.5;entryY=1;entryDx=0;entryDy=0;" parent="1" source="zIM46qZPRsjTmHNu7E-v-66" target="zIM46qZPRsjTmHNu7E-v-81" edge="1">
          <mxGeometry relative="1" as="geometry">
            <mxPoint x="1026.5" y="1930" as="targetPoint" />
          </mxGeometry>
        </mxCell>
        <mxCell id="zIM46qZPRsjTmHNu7E-v-114" style="edgeStyle=none;rounded=0;orthogonalLoop=1;jettySize=auto;html=1;exitX=0.25;exitY=1;exitDx=0;exitDy=0;entryX=0.5;entryY=0;entryDx=0;entryDy=0;endArrow=none;endFill=0;" parent="1" source="zIM46qZPRsjTmHNu7E-v-66" target="zIM46qZPRsjTmHNu7E-v-80" edge="1">
          <mxGeometry relative="1" as="geometry" />
        </mxCell>
        <mxCell id="zIM46qZPRsjTmHNu7E-v-134" value="HorasSemana" style="ellipse;whiteSpace=wrap;html=1;align=center;" parent="1" vertex="1">
          <mxGeometry x="1232.5" y="2250" width="100" height="40" as="geometry" />
        </mxCell>
        <mxCell id="g0_pJcZllksjb82MzW6W-3" style="edgeStyle=orthogonalEdgeStyle;rounded=0;orthogonalLoop=1;jettySize=auto;html=1;exitX=1;exitY=0.5;exitDx=0;exitDy=0;entryX=0;entryY=0.5;entryDx=0;entryDy=0;endArrow=none;endFill=0;" parent="1" target="zIM46qZPRsjTmHNu7E-v-15" edge="1">
          <mxGeometry relative="1" as="geometry">
            <mxPoint x="912.5" y="1715" as="sourcePoint" />
          </mxGeometry>
        </mxCell>
        <mxCell id="g0_pJcZllksjb82MzW6W-8" value="(1,1)" style="edgeLabel;html=1;align=center;verticalAlign=middle;resizable=0;points=[];" parent="g0_pJcZllksjb82MzW6W-3" connectable="0" vertex="1">
          <mxGeometry x="0.0333" relative="1" as="geometry">
            <mxPoint x="25" y="-15" as="offset" />
          </mxGeometry>
        </mxCell>
        <mxCell id="g0_pJcZllksjb82MzW6W-13" style="edgeStyle=orthogonalEdgeStyle;rounded=0;orthogonalLoop=1;jettySize=auto;html=1;entryX=0;entryY=0.5;entryDx=0;entryDy=0;endArrow=none;endFill=0;" parent="1" source="zIM46qZPRsjTmHNu7E-v-138" target="zIM46qZPRsjTmHNu7E-v-49" edge="1">
          <mxGeometry relative="1" as="geometry" />
        </mxCell>
        <mxCell id="g0_pJcZllksjb82MzW6W-15" value="(1,1)" style="edgeLabel;html=1;align=center;verticalAlign=middle;resizable=0;points=[];" parent="g0_pJcZllksjb82MzW6W-13" connectable="0" vertex="1">
          <mxGeometry x="0.5453" relative="1" as="geometry">
            <mxPoint x="12" y="-10" as="offset" />
          </mxGeometry>
        </mxCell>
        <mxCell id="zIM46qZPRsjTmHNu7E-v-138" value="Tiene" style="shape=rhombus;double=1;perimeter=rhombusPerimeter;whiteSpace=wrap;html=1;align=center;" parent="1" vertex="1">
          <mxGeometry x="1550" y="1475" width="120" height="60" as="geometry" />
        </mxCell>
        <mxCell id="g0_pJcZllksjb82MzW6W-5" style="edgeStyle=orthogonalEdgeStyle;rounded=0;orthogonalLoop=1;jettySize=auto;html=1;entryX=0;entryY=0.5;entryDx=0;entryDy=0;endArrow=none;endFill=0;" parent="1" source="g0_pJcZllksjb82MzW6W-1" target="zIM46qZPRsjTmHNu7E-v-40" edge="1">
          <mxGeometry relative="1" as="geometry" />
        </mxCell>
        <mxCell id="g0_pJcZllksjb82MzW6W-10" value="(1,N)" style="edgeLabel;html=1;align=center;verticalAlign=middle;resizable=0;points=[];" parent="g0_pJcZllksjb82MzW6W-5" connectable="0" vertex="1">
          <mxGeometry x="0.5119" y="9" relative="1" as="geometry">
            <mxPoint as="offset" />
          </mxGeometry>
        </mxCell>
        <mxCell id="g0_pJcZllksjb82MzW6W-1" value="Transportado por" style="shape=rhombus;perimeter=rhombusPerimeter;whiteSpace=wrap;html=1;align=center;" parent="1" vertex="1">
          <mxGeometry x="1022.5" y="1462.5" width="160" height="85" as="geometry" />
        </mxCell>
        <mxCell id="65QmvwVyFLrzTzqAWC3V-11" value="" style="edgeStyle=none;rounded=0;orthogonalLoop=1;jettySize=auto;html=1;endArrow=none;endFill=0;" parent="1" source="65QmvwVyFLrzTzqAWC3V-4" target="zIM46qZPRsjTmHNu7E-v-71" edge="1">
          <mxGeometry relative="1" as="geometry" />
        </mxCell>
        <mxCell id="65QmvwVyFLrzTzqAWC3V-4" value="" style="ellipse;whiteSpace=wrap;html=1;" parent="1" vertex="1">
          <mxGeometry x="1001.5" y="2050" width="50" height="50" as="geometry" />
        </mxCell>
        <mxCell id="65QmvwVyFLrzTzqAWC3V-13" style="edgeStyle=none;rounded=0;orthogonalLoop=1;jettySize=auto;html=1;exitX=1;exitY=0.75;exitDx=0;exitDy=0;entryX=0.5;entryY=0;entryDx=0;entryDy=0;endArrow=none;endFill=0;" parent="1" source="65QmvwVyFLrzTzqAWC3V-7" target="zIM46qZPRsjTmHNu7E-v-69" edge="1">
          <mxGeometry relative="1" as="geometry">
            <Array as="points">
              <mxPoint x="1212.5" y="2083" />
            </Array>
          </mxGeometry>
        </mxCell>
        <mxCell id="65QmvwVyFLrzTzqAWC3V-14" style="edgeStyle=none;rounded=0;orthogonalLoop=1;jettySize=auto;html=1;exitX=0;exitY=0.75;exitDx=0;exitDy=0;entryX=0.5;entryY=0;entryDx=0;entryDy=0;endArrow=none;endFill=0;" parent="1" source="65QmvwVyFLrzTzqAWC3V-7" target="zIM46qZPRsjTmHNu7E-v-73" edge="1">
          <mxGeometry relative="1" as="geometry">
            <Array as="points">
              <mxPoint x="1010" y="2080" />
              <mxPoint x="806.5" y="2083" />
            </Array>
          </mxGeometry>
        </mxCell>
        <mxCell id="65QmvwVyFLrzTzqAWC3V-7" value="d" style="text;html=1;align=center;verticalAlign=middle;whiteSpace=wrap;rounded=0;" parent="1" vertex="1">
          <mxGeometry x="996.5" y="2060" width="60" height="30" as="geometry" />
        </mxCell>
        <mxCell id="zIM46qZPRsjTmHNu7E-v-143" style="edgeStyle=orthogonalEdgeStyle;rounded=0;orthogonalLoop=1;jettySize=auto;html=1;exitX=0;exitY=1;exitDx=0;exitDy=0;entryX=0.5;entryY=0;entryDx=0;entryDy=0;endArrow=none;endFill=0;" parent="1" source="zIM46qZPRsjTmHNu7E-v-140" target="zIM46qZPRsjTmHNu7E-v-64" edge="1">
          <mxGeometry relative="1" as="geometry" />
        </mxCell>
        <mxCell id="zIM46qZPRsjTmHNu7E-v-144" style="edgeStyle=orthogonalEdgeStyle;rounded=0;orthogonalLoop=1;jettySize=auto;html=1;exitX=1;exitY=1;exitDx=0;exitDy=0;endArrow=none;endFill=0;entryX=0.5;entryY=0;entryDx=0;entryDy=0;" parent="1" source="zIM46qZPRsjTmHNu7E-v-140" target="zIM46qZPRsjTmHNu7E-v-61" edge="1">
          <mxGeometry relative="1" as="geometry">
            <Array as="points">
              <mxPoint x="1131" y="1103.5" />
            </Array>
          </mxGeometry>
        </mxCell>
        <mxCell id="zIM46qZPRsjTmHNu7E-v-140" value="o" style="ellipse;whiteSpace=wrap;html=1;" parent="1" vertex="1">
          <mxGeometry x="935.5" y="1060.5" width="50" height="50" as="geometry" />
        </mxCell>
        <mxCell id="zIM46qZPRsjTmHNu7E-v-155" style="edgeStyle=orthogonalEdgeStyle;rounded=0;orthogonalLoop=1;jettySize=auto;html=1;exitX=0;exitY=0.5;exitDx=0;exitDy=0;" parent="1" source="zIM46qZPRsjTmHNu7E-v-152" target="zIM46qZPRsjTmHNu7E-v-27" edge="1">
          <mxGeometry relative="1" as="geometry" />
        </mxCell>
        <mxCell id="zIM46qZPRsjTmHNu7E-v-156" style="edgeStyle=orthogonalEdgeStyle;rounded=0;orthogonalLoop=1;jettySize=auto;html=1;exitX=1;exitY=0.5;exitDx=0;exitDy=0;entryX=0.5;entryY=0;entryDx=0;entryDy=0;" parent="1" source="zIM46qZPRsjTmHNu7E-v-152" target="zIM46qZPRsjTmHNu7E-v-28" edge="1">
          <mxGeometry relative="1" as="geometry" />
        </mxCell>
        <mxCell id="g0_pJcZllksjb82MzW6W-12" style="rounded=0;orthogonalLoop=1;jettySize=auto;html=1;entryX=0.056;entryY=0.524;entryDx=0;entryDy=0;entryPerimeter=0;endArrow=none;endFill=0;" parent="1" source="zIM46qZPRsjTmHNu7E-v-40" target="zIM46qZPRsjTmHNu7E-v-138" edge="1">
          <mxGeometry relative="1" as="geometry" />
        </mxCell>
        <mxCell id="g0_pJcZllksjb82MzW6W-14" value="(1,N)" style="edgeLabel;html=1;align=center;verticalAlign=middle;resizable=0;points=[];" parent="g0_pJcZllksjb82MzW6W-12" connectable="0" vertex="1">
          <mxGeometry x="-0.2501" y="2" relative="1" as="geometry">
            <mxPoint x="-36" y="-8" as="offset" />
          </mxGeometry>
        </mxCell>
        <mxCell id="zIM46qZPRsjTmHNu7E-v-152" value="U" style="ellipse;whiteSpace=wrap;html=1;" parent="1" vertex="1">
          <mxGeometry x="324" y="1610" width="50" height="50" as="geometry" />
        </mxCell>
        <mxCell id="zIM46qZPRsjTmHNu7E-v-157" value="" style="shape=requiredInterface;html=1;verticalLabelPosition=bottom;sketch=0;direction=north;" parent="1" vertex="1">
          <mxGeometry x="330" y="1580" width="40" height="20" as="geometry" />
        </mxCell>
        <mxCell id="65QmvwVyFLrzTzqAWC3V-21" style="edgeStyle=none;rounded=0;orthogonalLoop=1;jettySize=auto;html=1;exitX=0.5;exitY=1;exitDx=0;exitDy=0;entryX=0.5;entryY=0;entryDx=0;entryDy=0;endArrow=none;endFill=0;" parent="1" source="65QmvwVyFLrzTzqAWC3V-18" target="zIM46qZPRsjTmHNu7E-v-40" edge="1">
          <mxGeometry relative="1" as="geometry" />
        </mxCell>
        <mxCell id="65QmvwVyFLrzTzqAWC3V-45" style="edgeStyle=none;rounded=0;orthogonalLoop=1;jettySize=auto;html=1;exitX=0;exitY=0.5;exitDx=0;exitDy=0;entryX=1;entryY=0.5;entryDx=0;entryDy=0;endArrow=none;endFill=0;" parent="1" source="65QmvwVyFLrzTzqAWC3V-18" target="65QmvwVyFLrzTzqAWC3V-44" edge="1">
          <mxGeometry relative="1" as="geometry" />
        </mxCell>
        <mxCell id="65QmvwVyFLrzTzqAWC3V-46" value="(1,1)" style="edgeLabel;html=1;align=center;verticalAlign=middle;resizable=0;points=[];" parent="65QmvwVyFLrzTzqAWC3V-45" connectable="0" vertex="1">
          <mxGeometry x="-0.0472" y="1" relative="1" as="geometry">
            <mxPoint x="35" y="39" as="offset" />
          </mxGeometry>
        </mxCell>
        <mxCell id="zIM46qZPRsjTmHNu7E-v-193" style="edgeStyle=none;rounded=0;orthogonalLoop=1;jettySize=auto;html=1;exitX=0;exitY=0.5;exitDx=0;exitDy=0;entryX=1;entryY=0.5;entryDx=0;entryDy=0;endArrow=none;endFill=0;" parent="1" source="65QmvwVyFLrzTzqAWC3V-18" target="zIM46qZPRsjTmHNu7E-v-191" edge="1">
          <mxGeometry relative="1" as="geometry" />
        </mxCell>
        <mxCell id="65QmvwVyFLrzTzqAWC3V-18" value="Ejecuta" style="rhombus;whiteSpace=wrap;html=1;" parent="1" vertex="1">
          <mxGeometry x="1332.5" y="1285.5" width="80" height="80" as="geometry" />
        </mxCell>
        <mxCell id="zIM46qZPRsjTmHNu7E-v-160" style="edgeStyle=none;rounded=0;orthogonalLoop=1;jettySize=auto;html=1;exitX=0;exitY=0;exitDx=0;exitDy=0;entryX=1;entryY=0.5;entryDx=0;entryDy=0;endArrow=none;endFill=0;" parent="1" source="zIM46qZPRsjTmHNu7E-v-161" target="zIM46qZPRsjTmHNu7E-v-162" edge="1">
          <mxGeometry relative="1" as="geometry" />
        </mxCell>
        <mxCell id="zIM46qZPRsjTmHNu7E-v-161" value="GPS" style="whiteSpace=wrap;html=1;align=center;labelBackgroundColor=none;" parent="1" vertex="1">
          <mxGeometry x="610" y="935.5" width="100" height="50" as="geometry" />
        </mxCell>
        <mxCell id="zIM46qZPRsjTmHNu7E-v-162" value="&lt;u&gt;ID_GPS&lt;/u&gt;" style="ellipse;whiteSpace=wrap;html=1;align=center;labelBackgroundColor=none;" parent="1" vertex="1">
          <mxGeometry x="475" y="874.25" width="100" height="40" as="geometry" />
        </mxCell>
        <mxCell id="zIM46qZPRsjTmHNu7E-v-163" value="Modelo" style="ellipse;whiteSpace=wrap;html=1;align=center;labelBackgroundColor=none;" parent="1" vertex="1">
          <mxGeometry x="450" y="942.25" width="100" height="40" as="geometry" />
        </mxCell>
        <mxCell id="zIM46qZPRsjTmHNu7E-v-164" value="Nº Serie" style="ellipse;whiteSpace=wrap;html=1;align=center;labelBackgroundColor=none;" parent="1" vertex="1">
          <mxGeometry x="460" y="1006.75" width="100" height="40" as="geometry" />
        </mxCell>
        <mxCell id="zIM46qZPRsjTmHNu7E-v-165" style="edgeStyle=none;rounded=0;orthogonalLoop=1;jettySize=auto;html=1;exitX=0;exitY=1;exitDx=0;exitDy=0;entryX=1;entryY=0.5;entryDx=0;entryDy=0;endArrow=none;endFill=0;" parent="1" source="zIM46qZPRsjTmHNu7E-v-161" target="zIM46qZPRsjTmHNu7E-v-164" edge="1">
          <mxGeometry relative="1" as="geometry" />
        </mxCell>
        <mxCell id="zIM46qZPRsjTmHNu7E-v-166" style="edgeStyle=none;rounded=0;orthogonalLoop=1;jettySize=auto;html=1;exitX=0;exitY=0.5;exitDx=0;exitDy=0;entryX=1;entryY=0.5;entryDx=0;entryDy=0;endArrow=none;endFill=0;" parent="1" source="zIM46qZPRsjTmHNu7E-v-161" target="zIM46qZPRsjTmHNu7E-v-163" edge="1">
          <mxGeometry relative="1" as="geometry" />
        </mxCell>
        <mxCell id="zIM46qZPRsjTmHNu7E-v-178" style="edgeStyle=none;rounded=0;orthogonalLoop=1;jettySize=auto;html=1;exitX=0;exitY=0.5;exitDx=0;exitDy=0;exitPerimeter=0;endArrow=none;endFill=0;" parent="1" source="zIM46qZPRsjTmHNu7E-v-174" target="zIM46qZPRsjTmHNu7E-v-161" edge="1">
          <mxGeometry relative="1" as="geometry" />
        </mxCell>
        <mxCell id="zIM46qZPRsjTmHNu7E-v-174" value="Tiene" style="strokeWidth=2;html=1;shape=mxgraph.flowchart.decision;whiteSpace=wrap;" parent="1" vertex="1">
          <mxGeometry x="780" y="929.5" width="70" height="65.5" as="geometry" />
        </mxCell>
        <mxCell id="zIM46qZPRsjTmHNu7E-v-177" style="edgeStyle=none;rounded=0;orthogonalLoop=1;jettySize=auto;html=1;exitX=0;exitY=0.5;exitDx=0;exitDy=0;entryX=1;entryY=0.5;entryDx=0;entryDy=0;entryPerimeter=0;endArrow=none;endFill=0;" parent="1" source="zIM46qZPRsjTmHNu7E-v-57" target="zIM46qZPRsjTmHNu7E-v-174" edge="1">
          <mxGeometry relative="1" as="geometry" />
        </mxCell>
        <mxCell id="65QmvwVyFLrzTzqAWC3V-27" style="edgeStyle=none;rounded=0;orthogonalLoop=1;jettySize=auto;html=1;entryX=1;entryY=0.5;entryDx=0;entryDy=0;endArrow=none;endFill=0;exitX=1;exitY=0.5;exitDx=0;exitDy=0;" parent="1" source="65QmvwVyFLrzTzqAWC3V-18" target="zIM46qZPRsjTmHNu7E-v-69" edge="1">
          <mxGeometry relative="1" as="geometry">
            <Array as="points">
              <mxPoint x="2250" y="1330" />
              <mxPoint x="2250" y="2190" />
              <mxPoint x="1370" y="2200" />
            </Array>
            <mxPoint x="2260" y="1710" as="sourcePoint" />
          </mxGeometry>
        </mxCell>
        <mxCell id="65QmvwVyFLrzTzqAWC3V-43" value="(0,N)" style="edgeLabel;html=1;align=center;verticalAlign=middle;resizable=0;points=[];" parent="65QmvwVyFLrzTzqAWC3V-27" connectable="0" vertex="1">
          <mxGeometry x="-0.9883" y="3" relative="1" as="geometry">
            <mxPoint x="-78" y="152" as="offset" />
          </mxGeometry>
        </mxCell>
        <mxCell id="65QmvwVyFLrzTzqAWC3V-47" value="(1,M)" style="edgeLabel;html=1;align=center;verticalAlign=middle;resizable=0;points=[];" parent="65QmvwVyFLrzTzqAWC3V-27" connectable="0" vertex="1">
          <mxGeometry x="-0.9881" y="1" relative="1" as="geometry">
            <mxPoint y="15" as="offset" />
          </mxGeometry>
        </mxCell>
        <mxCell id="65QmvwVyFLrzTzqAWC3V-30" style="edgeStyle=none;rounded=0;orthogonalLoop=1;jettySize=auto;html=1;exitX=1;exitY=0.5;exitDx=0;exitDy=0;endArrow=none;endFill=0;" parent="1" source="65QmvwVyFLrzTzqAWC3V-28" edge="1">
          <mxGeometry relative="1" as="geometry">
            <mxPoint x="800" y="1510.3333333333333" as="targetPoint" />
          </mxGeometry>
        </mxCell>
        <mxCell id="65QmvwVyFLrzTzqAWC3V-28" value="Contrata" style="rhombus;whiteSpace=wrap;html=1;" parent="1" vertex="1">
          <mxGeometry x="550" y="1470" width="80" height="80" as="geometry" />
        </mxCell>
        <mxCell id="zIM46qZPRsjTmHNu7E-v-179" value="Contiene" style="shape=rhombus;double=1;perimeter=rhombusPerimeter;whiteSpace=wrap;html=1;align=center;" parent="1" vertex="1">
          <mxGeometry x="792.5" y="1685" width="120" height="60" as="geometry" />
        </mxCell>
        <mxCell id="65QmvwVyFLrzTzqAWC3V-32" value="(1,1)" style="text;html=1;align=center;verticalAlign=middle;whiteSpace=wrap;rounded=0;" parent="1" vertex="1">
          <mxGeometry x="860" y="955.5" width="60" height="30" as="geometry" />
        </mxCell>
        <mxCell id="65QmvwVyFLrzTzqAWC3V-33" value="(1,1)" style="text;html=1;align=center;verticalAlign=middle;whiteSpace=wrap;rounded=0;" parent="1" vertex="1">
          <mxGeometry x="696" y="935.5" width="60" height="30" as="geometry" />
        </mxCell>
        <mxCell id="65QmvwVyFLrzTzqAWC3V-35" value="(1,N)" style="text;html=1;align=center;verticalAlign=middle;whiteSpace=wrap;rounded=0;" parent="1" vertex="1">
          <mxGeometry x="400" y="1485" width="60" height="30" as="geometry" />
        </mxCell>
        <mxCell id="65QmvwVyFLrzTzqAWC3V-36" value="(1,1)" style="text;html=1;align=center;verticalAlign=middle;whiteSpace=wrap;rounded=0;" parent="1" vertex="1">
          <mxGeometry x="742.5" y="1505" width="60" height="30" as="geometry" />
        </mxCell>
        <mxCell id="zIM46qZPRsjTmHNu7E-v-188" style="edgeStyle=orthogonalEdgeStyle;rounded=0;orthogonalLoop=1;jettySize=auto;html=1;exitX=0.5;exitY=1;exitDx=0;exitDy=0;entryX=1;entryY=1;entryDx=0;entryDy=0;endArrow=none;endFill=0;" parent="1" source="zIM46qZPRsjTmHNu7E-v-185" target="zIM46qZPRsjTmHNu7E-v-69" edge="1">
          <mxGeometry relative="1" as="geometry">
            <mxPoint x="1440" y="2270" as="targetPoint" />
            <Array as="points">
              <mxPoint x="2315" y="2220" />
            </Array>
          </mxGeometry>
        </mxCell>
        <mxCell id="65QmvwVyFLrzTzqAWC3V-42" value="(0,N)" style="edgeLabel;html=1;align=center;verticalAlign=middle;resizable=0;points=[];" parent="zIM46qZPRsjTmHNu7E-v-188" connectable="0" vertex="1">
          <mxGeometry x="0.9625" y="-2" relative="1" as="geometry">
            <mxPoint x="-28" y="-28" as="offset" />
          </mxGeometry>
        </mxCell>
        <mxCell id="KEvyHmb3bW_60ThpbIGu-1" value="(1,N)" style="edgeLabel;html=1;align=center;verticalAlign=middle;resizable=0;points=[];" parent="zIM46qZPRsjTmHNu7E-v-188" vertex="1" connectable="0">
          <mxGeometry x="0.9878" y="2" relative="1" as="geometry">
            <mxPoint y="8" as="offset" />
          </mxGeometry>
        </mxCell>
        <mxCell id="zIM46qZPRsjTmHNu7E-v-185" value="Asignado a" style="shape=rhombus;perimeter=rhombusPerimeter;whiteSpace=wrap;html=1;align=center;" parent="1" vertex="1">
          <mxGeometry x="2250" y="905.5" width="130" height="60" as="geometry" />
        </mxCell>
        <mxCell id="65QmvwVyFLrzTzqAWC3V-44" value="Fecha_ejecucion" style="ellipse;whiteSpace=wrap;html=1;" parent="1" vertex="1">
          <mxGeometry x="1191.5" y="1285.5" width="110" height="50" as="geometry" />
        </mxCell>
        <mxCell id="zIM46qZPRsjTmHNu7E-v-190" value="(1,1)" style="edgeLabel;html=1;align=center;verticalAlign=middle;resizable=0;points=[];" parent="1" connectable="0" vertex="1">
          <mxGeometry x="1282.5" y="1210" as="geometry">
            <mxPoint x="73" y="63" as="offset" />
          </mxGeometry>
        </mxCell>
        <mxCell id="zIM46qZPRsjTmHNu7E-v-191" value="&lt;u&gt;ID_Ejecución&lt;/u&gt;" style="ellipse;whiteSpace=wrap;html=1;align=center;" parent="1" vertex="1">
          <mxGeometry x="1201.5" y="1340" width="100" height="40" as="geometry" />
        </mxCell>
        <mxCell id="65QmvwVyFLrzTzqAWC3V-50" value="" style="edgeStyle=none;rounded=0;orthogonalLoop=1;jettySize=auto;html=1;exitX=0.5;exitY=1;exitDx=0;exitDy=0;entryX=0.75;entryY=1;entryDx=0;entryDy=0;endArrow=none;endFill=0;" parent="1" source="65QmvwVyFLrzTzqAWC3V-49" target="zIM46qZPRsjTmHNu7E-v-66" edge="1">
          <mxGeometry relative="1" as="geometry">
            <Array as="points">
              <mxPoint x="1242" y="2030" />
              <mxPoint x="1059" y="2030" />
            </Array>
          </mxGeometry>
        </mxCell>
        <mxCell id="hRpHxZAviI2j9i4yawk_-1" value="(0,1)" style="edgeLabel;html=1;align=center;verticalAlign=middle;resizable=0;points=[];" vertex="1" connectable="0" parent="65QmvwVyFLrzTzqAWC3V-50">
          <mxGeometry x="0.6158" y="3" relative="1" as="geometry">
            <mxPoint as="offset" />
          </mxGeometry>
        </mxCell>
        <mxCell id="65QmvwVyFLrzTzqAWC3V-51" style="edgeStyle=none;rounded=0;orthogonalLoop=1;jettySize=auto;html=1;exitX=0.5;exitY=0;exitDx=0;exitDy=0;entryX=0.75;entryY=0;entryDx=0;entryDy=0;endArrow=none;endFill=0;" parent="1" source="65QmvwVyFLrzTzqAWC3V-49" target="zIM46qZPRsjTmHNu7E-v-66" edge="1">
          <mxGeometry relative="1" as="geometry">
            <Array as="points">
              <mxPoint x="1242" y="1900" />
              <mxPoint x="1059" y="1900" />
            </Array>
          </mxGeometry>
        </mxCell>
        <mxCell id="hRpHxZAviI2j9i4yawk_-2" value="(0,M)" style="edgeLabel;html=1;align=center;verticalAlign=middle;resizable=0;points=[];" vertex="1" connectable="0" parent="65QmvwVyFLrzTzqAWC3V-51">
          <mxGeometry x="0.3693" relative="1" as="geometry">
            <mxPoint as="offset" />
          </mxGeometry>
        </mxCell>
        <mxCell id="65QmvwVyFLrzTzqAWC3V-49" value="Supervisa" style="rhombus;whiteSpace=wrap;html=1;" parent="1" vertex="1">
          <mxGeometry x="1201.5" y="1920" width="80" height="80" as="geometry" />
        </mxCell>
        <mxCell id="zIM46qZPRsjTmHNu7E-v-196" value="Un supervisor puede supervisar varios empleados, no?" style="shape=note;size=20;whiteSpace=wrap;html=1;" parent="1" vertex="1">
          <mxGeometry x="1310" y="1910" width="100" height="100" as="geometry" />
        </mxCell>
        <mxCell id="KEvyHmb3bW_60ThpbIGu-3" value="&lt;div&gt;Implementado en el sql como EJECUCION y EJECUCION_CONDUCTORES, para evitar redundancia.&lt;/div&gt;&lt;div&gt;&lt;br&gt;&lt;/div&gt;" style="shape=note;size=20;whiteSpace=wrap;html=1;" parent="1" vertex="1">
          <mxGeometry x="1450" y="1180" width="210" height="100" as="geometry" />
        </mxCell>
      </root>
    </mxGraphModel>
  </diagram>
</mxfile>
